<svg xmlns="http://www.w3.org/2000/svg" width="1920" height="945" style="cursor: move; margin-left: -200px;">
  <g transform="translate(-273.2, -169.4) scale(1.32)">
    <path class="link_input_h_layer_1" marker-end="url(#arrow)" d="M664,374.5C792,374.5 792,212.5 920,212.5" style="stroke-width: 0.4; stroke-opacity: 1; stroke: rgb(157, 157, 255); fill: none; opacity: 1;"/>
    <path class="link_input_h_layer_1" marker-end="url(#arrow)" d="M664,374.5C792,374.5 792,266.5 920,266.5" style="stroke-width: 0.4; stroke-opacity: 1; stroke: rgb(255, 25, 25); fill: none; opacity: 1;"/>
    <path class="link_input_h_layer_1" marker-end="url(#arrow)" d="M664,374.5C792,374.5 792,320.5 920,320.5" style="stroke-width: 0.4; stroke-opacity: 1; stroke: rgb(80, 80, 255); fill: none; opacity: 1;"/>
    <path class="link_input_h_layer_1" marker-end="url(#arrow)" d="M664,374.5C792,374.5 792,374.5 920,374.5" style="stroke-width: 0.4; stroke-opacity: 1; stroke: rgb(91, 91, 255); fill: none; opacity: 1;"/>
    <path class="link_input_h_layer_1" marker-end="url(#arrow)" d="M664,374.5C792,374.5 792,428.5 920,428.5" style="stroke-width: 0.4; stroke-opacity: 1; stroke: rgb(255, 22, 22); fill: none; opacity: 1;"/>
    <path class="link_input_h_layer_1" marker-end="url(#arrow)" d="M664,374.5C792,374.5 792,482.5 920,482.5" style="stroke-width: 0.4; stroke-opacity: 1; stroke: rgb(172, 172, 255); fill: none; opacity: 1;"/>
    <path class="link_input_h_layer_1" marker-end="url(#arrow)" d="M664,374.5C792,374.5 792,536.5 920,536.5" style="stroke-width: 0.4; stroke-opacity: 1; stroke: rgb(228, 228, 255); fill: none; opacity: 1;"/>
    <path class="link_input_h_layer_1" marker-end="url(#arrow)" d="M664,374.5C792,374.5 792,590.5 920,590.5" style="stroke-width: 0.4; stroke-opacity: 1; stroke: rgb(255, 95, 95); fill: none; opacity: 1;"/>
    <path class="link_input_h_layer_1" marker-end="url(#arrow)" d="M664,374.5C792,374.5 792,644.5 920,644.5" style="stroke-width: 0.4; stroke-opacity: 1; stroke: rgb(150, 150, 255); fill: none; opacity: 1;"/>
    <path class="link_input_h_layer_1" marker-end="url(#arrow)" d="M664,374.5C792,374.5 792,698.5 920,698.5" style="stroke-width: 0.4; stroke-opacity: 1; stroke: rgb(228, 228, 255); fill: none; opacity: 1;"/>
    <path class="link_input_h_layer_1" marker-end="url(#arrow)" d="M664,428.5C792,428.5 792,212.5 920,212.5" style="stroke-width: 0.4; stroke-opacity: 1; stroke: rgb(117, 117, 255); fill: none; opacity: 1;"/>
    <path class="link_input_h_layer_1" marker-end="url(#arrow)" d="M664,428.5C792,428.5 792,266.5 920,266.5" style="stroke-width: 0.4; stroke-opacity: 1; stroke: rgb(255, 60, 60); fill: none; opacity: 1;"/>
    <path class="link_input_h_layer_1" marker-end="url(#arrow)" d="M664,428.5C792,428.5 792,320.5 920,320.5" style="stroke-width: 0.4; stroke-opacity: 1; stroke: rgb(255, 85, 85); fill: none; opacity: 1;"/>
    <path class="link_input_h_layer_1" marker-end="url(#arrow)" d="M664,428.5C792,428.5 792,374.5 920,374.5" style="stroke-width: 0.4; stroke-opacity: 1; stroke: rgb(97, 97, 255); fill: none; opacity: 1;"/>
    <path class="link_input_h_layer_1" marker-end="url(#arrow)" d="M664,428.5C792,428.5 792,428.5 920,428.5" style="stroke-width: 0.4; stroke-opacity: 1; stroke: rgb(67, 67, 255); fill: none; opacity: 1;"/>
    <path class="link_input_h_layer_1" marker-end="url(#arrow)" d="M664,428.5C792,428.5 792,482.5 920,482.5" style="stroke-width: 0.4; stroke-opacity: 1; stroke: rgb(255, 110, 110); fill: none; opacity: 1;"/>
    <path class="link_input_h_layer_1" marker-end="url(#arrow)" d="M664,428.5C792,428.5 792,536.5 920,536.5" style="stroke-width: 0.4; stroke-opacity: 1; stroke: rgb(255, 12, 12); fill: none; opacity: 1;"/>
    <path class="link_input_h_layer_1" marker-end="url(#arrow)" d="M664,428.5C792,428.5 792,590.5 920,590.5" style="stroke-width: 0.4; stroke-opacity: 1; stroke: rgb(255, 178, 178); fill: none; opacity: 1;"/>
    <path class="link_input_h_layer_1" marker-end="url(#arrow)" d="M664,428.5C792,428.5 792,644.5 920,644.5" style="stroke-width: 0.4; stroke-opacity: 1; stroke: rgb(255, 238, 238); fill: none; opacity: 1;"/>
    <path class="link_input_h_layer_1" marker-end="url(#arrow)" d="M664,428.5C792,428.5 792,698.5 920,698.5" style="stroke-width: 0.4; stroke-opacity: 1; stroke: rgb(24, 24, 255); fill: none; opacity: 1;"/>
    <path class="link_input_h_layer_1" marker-end="url(#arrow)" d="M664,482.5C792,482.5 792,212.5 920,212.5" style="stroke-width: 0.4; stroke-opacity: 1; stroke: rgb(255, 170, 170); fill: none; opacity: 1;"/>
    <path class="link_input_h_layer_1" marker-end="url(#arrow)" d="M664,482.5C792,482.5 792,266.5 920,266.5" style="stroke-width: 0.4; stroke-opacity: 1; stroke: rgb(255, 126, 126); fill: none; opacity: 1;"/>
    <path class="link_input_h_layer_1" marker-end="url(#arrow)" d="M664,482.5C792,482.5 792,320.5 920,320.5" style="stroke-width: 0.4; stroke-opacity: 1; stroke: rgb(255, 69, 69); fill: none; opacity: 1;"/>
    <path class="link_input_h_layer_1" marker-end="url(#arrow)" d="M664,482.5C792,482.5 792,374.5 920,374.5" style="stroke-width: 0.4; stroke-opacity: 1; stroke: rgb(110, 110, 255); fill: none; opacity: 1;"/>
    <path class="link_input_h_layer_1" marker-end="url(#arrow)" d="M664,482.5C792,482.5 792,428.5 920,428.5" style="stroke-width: 0.4; stroke-opacity: 1; stroke: rgb(139, 139, 255); fill: none; opacity: 1;"/>
    <path class="link_input_h_layer_1" marker-end="url(#arrow)" d="M664,482.5C792,482.5 792,482.5 920,482.5" style="stroke-width: 0.4; stroke-opacity: 1; stroke: rgb(255, 159, 159); fill: none; opacity: 1;"/>
    <path class="link_input_h_layer_1" marker-end="url(#arrow)" d="M664,482.5C792,482.5 792,536.5 920,536.5" style="stroke-width: 0.4; stroke-opacity: 1; stroke: rgb(101, 101, 255); fill: none; opacity: 1;"/>
    <path class="link_input_h_layer_1" marker-end="url(#arrow)" d="M664,482.5C792,482.5 792,590.5 920,590.5" style="stroke-width: 0.4; stroke-opacity: 1; stroke: rgb(255, 28, 28); fill: none; opacity: 1;"/>
    <path class="link_input_h_layer_1" marker-end="url(#arrow)" d="M664,482.5C792,482.5 792,644.5 920,644.5" style="stroke-width: 0.4; stroke-opacity: 1; stroke: rgb(255, 121, 121); fill: none; opacity: 1;"/>
    <path class="link_input_h_layer_1" marker-end="url(#arrow)" d="M664,482.5C792,482.5 792,698.5 920,698.5" style="stroke-width: 0.4; stroke-opacity: 1; stroke: rgb(255, 64, 64); fill: none; opacity: 1;"/>
    <path class="link_input_h_layer_1" marker-end="url(#arrow)" d="M664,536.5C792,536.5 792,212.5 920,212.5" style="stroke-width: 0.4; stroke-opacity: 1; stroke: rgb(255, 56, 56); fill: none; opacity: 1;"/>
    <path class="link_input_h_layer_1" marker-end="url(#arrow)" d="M664,536.5C792,536.5 792,266.5 920,266.5" style="stroke-width: 0.4; stroke-opacity: 1; stroke: rgb(255, 100, 100); fill: none; opacity: 1;"/>
    <path class="link_input_h_layer_1" marker-end="url(#arrow)" d="M664,536.5C792,536.5 792,320.5 920,320.5" style="stroke-width: 0.4; stroke-opacity: 1; stroke: rgb(174, 174, 255); fill: none; opacity: 1;"/>
    <path class="link_input_h_layer_1" marker-end="url(#arrow)" d="M664,536.5C792,536.5 792,374.5 920,374.5" style="stroke-width: 0.4; stroke-opacity: 1; stroke: rgb(92, 92, 255); fill: none; opacity: 1;"/>
    <path class="link_input_h_layer_1" marker-end="url(#arrow)" d="M664,536.5C792,536.5 792,428.5 920,428.5" style="stroke-width: 0.4; stroke-opacity: 1; stroke: rgb(255, 183, 183); fill: none; opacity: 1;"/>
    <path class="link_input_h_layer_1" marker-end="url(#arrow)" d="M664,536.5C792,536.5 792,482.5 920,482.5" style="stroke-width: 0.4; stroke-opacity: 1; stroke: rgb(205, 205, 255); fill: none; opacity: 1;"/>
    <path class="link_input_h_layer_1" marker-end="url(#arrow)" d="M664,536.5C792,536.5 792,536.5 920,536.5" style="stroke-width: 0.4; stroke-opacity: 1; stroke: rgb(255, 245, 245); fill: none; opacity: 1;"/>
    <path class="link_input_h_layer_1" marker-end="url(#arrow)" d="M664,536.5C792,536.5 792,590.5 920,590.5" style="stroke-width: 0.4; stroke-opacity: 1; stroke: rgb(255, 46, 46); fill: none; opacity: 1;"/>
    <path class="link_input_h_layer_1" marker-end="url(#arrow)" d="M664,536.5C792,536.5 792,644.5 920,644.5" style="stroke-width: 0.4; stroke-opacity: 1; stroke: rgb(4, 4, 255); fill: none; opacity: 1;"/>
    <path class="link_input_h_layer_1" marker-end="url(#arrow)" d="M664,536.5C792,536.5 792,698.5 920,698.5" style="stroke-width: 0.4; stroke-opacity: 1; stroke: rgb(255, 190, 190); fill: none; opacity: 1;"/>
    <path class="link_h_layer_1_h_layer_2" marker-end="url(#arrow)" d="M920,212.5C1048,212.5 1048,212.5 1176,212.5" style="stroke-width: 0.4; stroke-opacity: 1; stroke: rgb(255, 236, 236); fill: none; opacity: 1;"/>
    <path class="link_h_layer_1_h_layer_2" marker-end="url(#arrow)" d="M920,212.5C1048,212.5 1048,266.5 1176,266.5" style="stroke-width: 0.4; stroke-opacity: 1; stroke: rgb(255, 136, 136); fill: none; opacity: 1;"/>
    <path class="link_h_layer_1_h_layer_2" marker-end="url(#arrow)" d="M920,212.5C1048,212.5 1048,320.5 1176,320.5" style="stroke-width: 0.4; stroke-opacity: 1; stroke: rgb(255, 241, 241); fill: none; opacity: 1;"/>
    <path class="link_h_layer_1_h_layer_2" marker-end="url(#arrow)" d="M920,212.5C1048,212.5 1048,374.5 1176,374.5" style="stroke-width: 0.4; stroke-opacity: 1; stroke: rgb(255, 208, 208); fill: none; opacity: 1;"/>
    <path class="link_h_layer_1_h_layer_2" marker-end="url(#arrow)" d="M920,212.5C1048,212.5 1048,428.5 1176,428.5" style="stroke-width: 0.4; stroke-opacity: 1; stroke: rgb(255, 220, 220); fill: none; opacity: 1;"/>
    <path class="link_h_layer_1_h_layer_2" marker-end="url(#arrow)" d="M920,212.5C1048,212.5 1048,482.5 1176,482.5" style="stroke-width: 0.4; stroke-opacity: 1; stroke: rgb(255, 161, 161); fill: none; opacity: 1;"/>
    <path class="link_h_layer_1_h_layer_2" marker-end="url(#arrow)" d="M920,212.5C1048,212.5 1048,536.5 1176,536.5" style="stroke-width: 0.4; stroke-opacity: 1; stroke: rgb(159, 159, 255); fill: none; opacity: 1;"/>
    <path class="link_h_layer_1_h_layer_2" marker-end="url(#arrow)" d="M920,212.5C1048,212.5 1048,590.5 1176,590.5" style="stroke-width: 0.4; stroke-opacity: 1; stroke: rgb(255, 39, 39); fill: none; opacity: 1;"/>
    <path class="link_h_layer_1_h_layer_2" marker-end="url(#arrow)" d="M920,212.5C1048,212.5 1048,644.5 1176,644.5" style="stroke-width: 0.4; stroke-opacity: 1; stroke: rgb(255, 222, 222); fill: none; opacity: 1;"/>
    <path class="link_h_layer_1_h_layer_2" marker-end="url(#arrow)" d="M920,212.5C1048,212.5 1048,698.5 1176,698.5" style="stroke-width: 0.4; stroke-opacity: 1; stroke: rgb(163, 163, 255); fill: none; opacity: 1;"/>
    <path class="link_h_layer_1_h_layer_2" marker-end="url(#arrow)" d="M920,266.5C1048,266.5 1048,212.5 1176,212.5" style="stroke-width: 0.4; stroke-opacity: 1; stroke: rgb(255, 58, 58); fill: none; opacity: 1;"/>
    <path class="link_h_layer_1_h_layer_2" marker-end="url(#arrow)" d="M920,266.5C1048,266.5 1048,266.5 1176,266.5" style="stroke-width: 0.4; stroke-opacity: 1; stroke: rgb(255, 222, 222); fill: none; opacity: 1;"/>
    <path class="link_h_layer_1_h_layer_2" marker-end="url(#arrow)" d="M920,266.5C1048,266.5 1048,320.5 1176,320.5" style="stroke-width: 0.4; stroke-opacity: 1; stroke: rgb(79, 79, 255); fill: none; opacity: 1;"/>
    <path class="link_h_layer_1_h_layer_2" marker-end="url(#arrow)" d="M920,266.5C1048,266.5 1048,374.5 1176,374.5" style="stroke-width: 0.4; stroke-opacity: 1; stroke: rgb(255, 214, 214); fill: none; opacity: 1;"/>
    <path class="link_h_layer_1_h_layer_2" marker-end="url(#arrow)" d="M920,266.5C1048,266.5 1048,428.5 1176,428.5" style="stroke-width: 0.4; stroke-opacity: 1; stroke: rgb(217, 217, 255); fill: none; opacity: 1;"/>
    <path class="link_h_layer_1_h_layer_2" marker-end="url(#arrow)" d="M920,266.5C1048,266.5 1048,482.5 1176,482.5" style="stroke-width: 0.4; stroke-opacity: 1; stroke: rgb(160, 160, 255); fill: none; opacity: 1;"/>
    <path class="link_h_layer_1_h_layer_2" marker-end="url(#arrow)" d="M920,266.5C1048,266.5 1048,536.5 1176,536.5" style="stroke-width: 0.4; stroke-opacity: 1; stroke: rgb(6, 6, 255); fill: none; opacity: 1;"/>
    <path class="link_h_layer_1_h_layer_2" marker-end="url(#arrow)" d="M920,266.5C1048,266.5 1048,590.5 1176,590.5" style="stroke-width: 0.4; stroke-opacity: 1; stroke: rgb(33, 33, 255); fill: none; opacity: 1;"/>
    <path class="link_h_layer_1_h_layer_2" marker-end="url(#arrow)" d="M920,266.5C1048,266.5 1048,644.5 1176,644.5" style="stroke-width: 0.4; stroke-opacity: 1; stroke: rgb(186, 186, 255); fill: none; opacity: 1;"/>
    <path class="link_h_layer_1_h_layer_2" marker-end="url(#arrow)" d="M920,266.5C1048,266.5 1048,698.5 1176,698.5" style="stroke-width: 0.4; stroke-opacity: 1; stroke: rgb(255, 125, 125); fill: none; opacity: 1;"/>
    <path class="link_h_layer_1_h_layer_2" marker-end="url(#arrow)" d="M920,320.5C1048,320.5 1048,212.5 1176,212.5" style="stroke-width: 0.4; stroke-opacity: 1; stroke: rgb(255, 235, 235); fill: none; opacity: 1;"/>
    <path class="link_h_layer_1_h_layer_2" marker-end="url(#arrow)" d="M920,320.5C1048,320.5 1048,266.5 1176,266.5" style="stroke-width: 0.4; stroke-opacity: 1; stroke: rgb(171, 171, 255); fill: none; opacity: 1;"/>
    <path class="link_h_layer_1_h_layer_2" marker-end="url(#arrow)" d="M920,320.5C1048,320.5 1048,320.5 1176,320.5" style="stroke-width: 0.4; stroke-opacity: 1; stroke: rgb(72, 72, 255); fill: none; opacity: 1;"/>
    <path class="link_h_layer_1_h_layer_2" marker-end="url(#arrow)" d="M920,320.5C1048,320.5 1048,374.5 1176,374.5" style="stroke-width: 0.4; stroke-opacity: 1; stroke: rgb(30, 30, 255); fill: none; opacity: 1;"/>
    <path class="link_h_layer_1_h_layer_2" marker-end="url(#arrow)" d="M920,320.5C1048,320.5 1048,428.5 1176,428.5" style="stroke-width: 0.4; stroke-opacity: 1; stroke: rgb(108, 108, 255); fill: none; opacity: 1;"/>
    <path class="link_h_layer_1_h_layer_2" marker-end="url(#arrow)" d="M920,320.5C1048,320.5 1048,482.5 1176,482.5" style="stroke-width: 0.4; stroke-opacity: 1; stroke: rgb(100, 100, 255); fill: none; opacity: 1;"/>
    <path class="link_h_layer_1_h_layer_2" marker-end="url(#arrow)" d="M920,320.5C1048,320.5 1048,536.5 1176,536.5" style="stroke-width: 0.4; stroke-opacity: 1; stroke: rgb(129, 129, 255); fill: none; opacity: 1;"/>
    <path class="link_h_layer_1_h_layer_2" marker-end="url(#arrow)" d="M920,320.5C1048,320.5 1048,590.5 1176,590.5" style="stroke-width: 0.4; stroke-opacity: 1; stroke: rgb(163, 163, 255); fill: none; opacity: 1;"/>
    <path class="link_h_layer_1_h_layer_2" marker-end="url(#arrow)" d="M920,320.5C1048,320.5 1048,644.5 1176,644.5" style="stroke-width: 0.4; stroke-opacity: 1; stroke: rgb(255, 20, 20); fill: none; opacity: 1;"/>
    <path class="link_h_layer_1_h_layer_2" marker-end="url(#arrow)" d="M920,320.5C1048,320.5 1048,698.5 1176,698.5" style="stroke-width: 0.4; stroke-opacity: 1; stroke: rgb(255, 223, 223); fill: none; opacity: 1;"/>
    <path class="link_h_layer_1_h_layer_2" marker-end="url(#arrow)" d="M920,374.5C1048,374.5 1048,212.5 1176,212.5" style="stroke-width: 0.4; stroke-opacity: 1; stroke: rgb(82, 82, 255); fill: none; opacity: 1;"/>
    <path class="link_h_layer_1_h_layer_2" marker-end="url(#arrow)" d="M920,374.5C1048,374.5 1048,266.5 1176,266.5" style="stroke-width: 0.4; stroke-opacity: 1; stroke: rgb(81, 81, 255); fill: none; opacity: 1;"/>
    <path class="link_h_layer_1_h_layer_2" marker-end="url(#arrow)" d="M920,374.5C1048,374.5 1048,320.5 1176,320.5" style="stroke-width: 0.4; stroke-opacity: 1; stroke: rgb(255, 1, 1); fill: none; opacity: 1;"/>
    <path class="link_h_layer_1_h_layer_2" marker-end="url(#arrow)" d="M920,374.5C1048,374.5 1048,374.5 1176,374.5" style="stroke-width: 0.4; stroke-opacity: 1; stroke: rgb(255, 221, 221); fill: none; opacity: 1;"/>
    <path class="link_h_layer_1_h_layer_2" marker-end="url(#arrow)" d="M920,374.5C1048,374.5 1048,428.5 1176,428.5" style="stroke-width: 0.4; stroke-opacity: 1; stroke: rgb(93, 93, 255); fill: none; opacity: 1;"/>
    <path class="link_h_layer_1_h_layer_2" marker-end="url(#arrow)" d="M920,374.5C1048,374.5 1048,482.5 1176,482.5" style="stroke-width: 0.4; stroke-opacity: 1; stroke: rgb(186, 186, 255); fill: none; opacity: 1;"/>
    <path class="link_h_layer_1_h_layer_2" marker-end="url(#arrow)" d="M920,374.5C1048,374.5 1048,536.5 1176,536.5" style="stroke-width: 0.4; stroke-opacity: 1; stroke: rgb(115, 115, 255); fill: none; opacity: 1;"/>
    <path class="link_h_layer_1_h_layer_2" marker-end="url(#arrow)" d="M920,374.5C1048,374.5 1048,590.5 1176,590.5" style="stroke-width: 0.4; stroke-opacity: 1; stroke: rgb(255, 234, 234); fill: none; opacity: 1;"/>
    <path class="link_h_layer_1_h_layer_2" marker-end="url(#arrow)" d="M920,374.5C1048,374.5 1048,644.5 1176,644.5" style="stroke-width: 0.4; stroke-opacity: 1; stroke: rgb(138, 138, 255); fill: none; opacity: 1;"/>
    <path class="link_h_layer_1_h_layer_2" marker-end="url(#arrow)" d="M920,374.5C1048,374.5 1048,698.5 1176,698.5" style="stroke-width: 0.4; stroke-opacity: 1; stroke: rgb(198, 198, 255); fill: none; opacity: 1;"/>
    <path class="link_h_layer_1_h_layer_2" marker-end="url(#arrow)" d="M920,428.5C1048,428.5 1048,212.5 1176,212.5" style="stroke-width: 0.4; stroke-opacity: 1; stroke: rgb(255, 166, 166); fill: none; opacity: 1;"/>
    <path class="link_h_layer_1_h_layer_2" marker-end="url(#arrow)" d="M920,428.5C1048,428.5 1048,266.5 1176,266.5" style="stroke-width: 0.4; stroke-opacity: 1; stroke: rgb(238, 238, 255); fill: none; opacity: 1;"/>
    <path class="link_h_layer_1_h_layer_2" marker-end="url(#arrow)" d="M920,428.5C1048,428.5 1048,320.5 1176,320.5" style="stroke-width: 0.4; stroke-opacity: 1; stroke: rgb(255, 121, 121); fill: none; opacity: 1;"/>
    <path class="link_h_layer_1_h_layer_2" marker-end="url(#arrow)" d="M920,428.5C1048,428.5 1048,374.5 1176,374.5" style="stroke-width: 0.4; stroke-opacity: 1; stroke: rgb(255, 205, 205); fill: none; opacity: 1;"/>
    <path class="link_h_layer_1_h_layer_2" marker-end="url(#arrow)" d="M920,428.5C1048,428.5 1048,428.5 1176,428.5" style="stroke-width: 0.4; stroke-opacity: 1; stroke: rgb(255, 218, 218); fill: none; opacity: 1;"/>
    <path class="link_h_layer_1_h_layer_2" marker-end="url(#arrow)" d="M920,428.5C1048,428.5 1048,482.5 1176,482.5" style="stroke-width: 0.4; stroke-opacity: 1; stroke: rgb(255, 203, 203); fill: none; opacity: 1;"/>
    <path class="link_h_layer_1_h_layer_2" marker-end="url(#arrow)" d="M920,428.5C1048,428.5 1048,536.5 1176,536.5" style="stroke-width: 0.4; stroke-opacity: 1; stroke: rgb(255, 176, 176); fill: none; opacity: 1;"/>
    <path class="link_h_layer_1_h_layer_2" marker-end="url(#arrow)" d="M920,428.5C1048,428.5 1048,590.5 1176,590.5" style="stroke-width: 0.4; stroke-opacity: 1; stroke: rgb(255, 253, 253); fill: none; opacity: 1;"/>
    <path class="link_h_layer_1_h_layer_2" marker-end="url(#arrow)" d="M920,428.5C1048,428.5 1048,644.5 1176,644.5" style="stroke-width: 0.4; stroke-opacity: 1; stroke: rgb(255, 9, 9); fill: none; opacity: 1;"/>
    <path class="link_h_layer_1_h_layer_2" marker-end="url(#arrow)" d="M920,428.5C1048,428.5 1048,698.5 1176,698.5" style="stroke-width: 0.4; stroke-opacity: 1; stroke: rgb(255, 224, 224); fill: none; opacity: 1;"/>
    <path class="link_h_layer_1_h_layer_2" marker-end="url(#arrow)" d="M920,482.5C1048,482.5 1048,212.5 1176,212.5" style="stroke-width: 0.4; stroke-opacity: 1; stroke: rgb(59, 59, 255); fill: none; opacity: 1;"/>
    <path class="link_h_layer_1_h_layer_2" marker-end="url(#arrow)" d="M920,482.5C1048,482.5 1048,266.5 1176,266.5" style="stroke-width: 0.4; stroke-opacity: 1; stroke: rgb(75, 75, 255); fill: none; opacity: 1;"/>
    <path class="link_h_layer_1_h_layer_2" marker-end="url(#arrow)" d="M920,482.5C1048,482.5 1048,320.5 1176,320.5" style="stroke-width: 0.4; stroke-opacity: 1; stroke: rgb(201, 201, 255); fill: none; opacity: 1;"/>
    <path class="link_h_layer_1_h_layer_2" marker-end="url(#arrow)" d="M920,482.5C1048,482.5 1048,374.5 1176,374.5" style="stroke-width: 0.4; stroke-opacity: 1; stroke: rgb(255, 242, 242); fill: none; opacity: 1;"/>
    <path class="link_h_layer_1_h_layer_2" marker-end="url(#arrow)" d="M920,482.5C1048,482.5 1048,428.5 1176,428.5" style="stroke-width: 0.4; stroke-opacity: 1; stroke: rgb(255, 121, 121); fill: none; opacity: 1;"/>
    <path class="link_h_layer_1_h_layer_2" marker-end="url(#arrow)" d="M920,482.5C1048,482.5 1048,482.5 1176,482.5" style="stroke-width: 0.4; stroke-opacity: 1; stroke: rgb(255, 202, 202); fill: none; opacity: 1;"/>
    <path class="link_h_layer_1_h_layer_2" marker-end="url(#arrow)" d="M920,482.5C1048,482.5 1048,536.5 1176,536.5" style="stroke-width: 0.4; stroke-opacity: 1; stroke: rgb(118, 118, 255); fill: none; opacity: 1;"/>
    <path class="link_h_layer_1_h_layer_2" marker-end="url(#arrow)" d="M920,482.5C1048,482.5 1048,590.5 1176,590.5" style="stroke-width: 0.4; stroke-opacity: 1; stroke: rgb(3, 3, 255); fill: none; opacity: 1;"/>
    <path class="link_h_layer_1_h_layer_2" marker-end="url(#arrow)" d="M920,482.5C1048,482.5 1048,644.5 1176,644.5" style="stroke-width: 0.4; stroke-opacity: 1; stroke: rgb(117, 117, 255); fill: none; opacity: 1;"/>
    <path class="link_h_layer_1_h_layer_2" marker-end="url(#arrow)" d="M920,482.5C1048,482.5 1048,698.5 1176,698.5" style="stroke-width: 0.4; stroke-opacity: 1; stroke: rgb(255, 65, 65); fill: none; opacity: 1;"/>
    <path class="link_h_layer_1_h_layer_2" marker-end="url(#arrow)" d="M920,536.5C1048,536.5 1048,212.5 1176,212.5" style="stroke-width: 0.4; stroke-opacity: 1; stroke: rgb(211, 211, 255); fill: none; opacity: 1;"/>
    <path class="link_h_layer_1_h_layer_2" marker-end="url(#arrow)" d="M920,536.5C1048,536.5 1048,266.5 1176,266.5" style="stroke-width: 0.4; stroke-opacity: 1; stroke: rgb(255, 224, 224); fill: none; opacity: 1;"/>
    <path class="link_h_layer_1_h_layer_2" marker-end="url(#arrow)" d="M920,536.5C1048,536.5 1048,320.5 1176,320.5" style="stroke-width: 0.4; stroke-opacity: 1; stroke: rgb(255, 136, 136); fill: none; opacity: 1;"/>
    <path class="link_h_layer_1_h_layer_2" marker-end="url(#arrow)" d="M920,536.5C1048,536.5 1048,374.5 1176,374.5" style="stroke-width: 0.4; stroke-opacity: 1; stroke: rgb(255, 251, 251); fill: none; opacity: 1;"/>
    <path class="link_h_layer_1_h_layer_2" marker-end="url(#arrow)" d="M920,536.5C1048,536.5 1048,428.5 1176,428.5" style="stroke-width: 0.4; stroke-opacity: 1; stroke: rgb(121, 121, 255); fill: none; opacity: 1;"/>
    <path class="link_h_layer_1_h_layer_2" marker-end="url(#arrow)" d="M920,536.5C1048,536.5 1048,482.5 1176,482.5" style="stroke-width: 0.4; stroke-opacity: 1; stroke: rgb(173, 173, 255); fill: none; opacity: 1;"/>
    <path class="link_h_layer_1_h_layer_2" marker-end="url(#arrow)" d="M920,536.5C1048,536.5 1048,536.5 1176,536.5" style="stroke-width: 0.4; stroke-opacity: 1; stroke: rgb(255, 174, 174); fill: none; opacity: 1;"/>
    <path class="link_h_layer_1_h_layer_2" marker-end="url(#arrow)" d="M920,536.5C1048,536.5 1048,590.5 1176,590.5" style="stroke-width: 0.4; stroke-opacity: 1; stroke: rgb(255, 153, 153); fill: none; opacity: 1;"/>
    <path class="link_h_layer_1_h_layer_2" marker-end="url(#arrow)" d="M920,536.5C1048,536.5 1048,644.5 1176,644.5" style="stroke-width: 0.4; stroke-opacity: 1; stroke: rgb(255, 153, 153); fill: none; opacity: 1;"/>
    <path class="link_h_layer_1_h_layer_2" marker-end="url(#arrow)" d="M920,536.5C1048,536.5 1048,644.5 1176,644.5" style="stroke-width: 0.4; stroke-opacity: 1; stroke: rgb(133, 133, 255); fill: none; opacity: 1;"/>
    <path class="link_h_layer_1_h_layer_2" marker-end="url(#arrow)" d="M920,536.5C1048,536.5 1048,698.5 1176,698.5" style="stroke-width: 0.4; stroke-opacity: 1; stroke: rgb(255, 89, 89); fill: none; opacity: 1;"/>
    <path class="link_h_layer_1_h_layer_2" marker-end="url(#arrow)" d="M920,590.5C1048,590.5 1048,212.5 1176,212.5" style="stroke-width: 0.4; stroke-opacity: 1; stroke: rgb(255, 21, 21); fill: none; opacity: 1;"/>
    <path class="link_h_layer_1_h_layer_2" marker-end="url(#arrow)" d="M920,590.5C1048,590.5 1048,266.5 1176,266.5" style="stroke-width: 0.4; stroke-opacity: 1; stroke: rgb(255, 61, 61); fill: none; opacity: 1;"/>
    <path class="link_h_layer_1_h_layer_2" marker-end="url(#arrow)" d="M920,590.5C1048,590.5 1048,320.5 1176,320.5" style="stroke-width: 0.4; stroke-opacity: 1; stroke: rgb(99, 99, 255); fill: none; opacity: 1;"/>
    <path class="link_h_layer_1_h_layer_2" marker-end="url(#arrow)" d="M920,590.5C1048,590.5 1048,374.5 1176,374.5" style="stroke-width: 0.4; stroke-opacity: 1; stroke: rgb(169, 169, 255); fill: none; opacity: 1;"/>
    <path class="link_h_layer_1_h_layer_2" marker-end="url(#arrow)" d="M920,590.5C1048,590.5 1048,428.5 1176,428.5" style="stroke-width: 0.4; stroke-opacity: 1; stroke: rgb(255, 132, 132); fill: none; opacity: 1;"/>
    <path class="link_h_layer_1_h_layer_2" marker-end="url(#arrow)" d="M920,590.5C1048,590.5 1048,482.5 1176,482.5" style="stroke-width: 0.4; stroke-opacity: 1; stroke: rgb(255, 119, 119); fill: none; opacity: 1;"/>
    <path class="link_h_layer_1_h_layer_2" marker-end="url(#arrow)" d="M920,590.5C1048,590.5 1048,536.5 1176,536.5" style="stroke-width: 0.4; stroke-opacity: 1; stroke: rgb(255, 30, 30); fill: none; opacity: 1;"/>
    <path class="link_h_layer_1_h_layer_2" marker-end="url(#arrow)" d="M920,590.5C1048,590.5 1048,590.5 1176,590.5" style="stroke-width: 0.4; stroke-opacity: 1; stroke: rgb(255, 86, 86); fill: none; opacity: 1;"/>
    <path class="link_h_layer_1_h_layer_2" marker-end="url(#arrow)" d="M920,590.5C1048,590.5 1048,644.5 1176,644.5" style="stroke-width: 0.4; stroke-opacity: 1; stroke: rgb(255, 227, 227); fill: none; opacity: 1;"/>
    <path class="link_h_layer_1_h_layer_2" marker-end="url(#arrow)" d="M920,590.5C1048,590.5 1048,698.5 1176,698.5" style="stroke-width: 0.4; stroke-opacity: 1; stroke: rgb(255, 100, 100); fill: none; opacity: 1;"/>
    <path class="link_h_layer_1_h_layer_2" marker-end="url(#arrow)" d="M920,644.5C1048,644.5 1048,212.5 1176,212.5" style="stroke-width: 0.4; stroke-opacity: 1; stroke: rgb(255, 176, 176); fill: none; opacity: 1;"/>
    <path class="link_h_layer_1_h_layer_2" marker-end="url(#arrow)" d="M920,644.5C1048,644.5 1048,266.5 1176,266.5" style="stroke-width: 0.4; stroke-opacity: 1; stroke: rgb(255, 159, 159); fill: none; opacity: 1;"/>
    <path class="link_h_layer_1_h_layer_2" marker-end="url(#arrow)" d="M920,644.5C1048,644.5 1048,320.5 1176,320.5" style="stroke-width: 0.4; stroke-opacity: 1; stroke: rgb(82, 82, 255); fill: none; opacity: 1;"/>
    <path class="link_h_layer_1_h_layer_2" marker-end="url(#arrow)" d="M920,644.5C1048,644.5 1048,374.5 1176,374.5" style="stroke-width: 0.4; stroke-opacity: 1; stroke: rgb(180, 180, 255); fill: none; opacity: 1;"/>
    <path class="link_h_layer_1_h_layer_2" marker-end="url(#arrow)" d="M920,644.5C1048,644.5 1048,428.5 1176,428.5" style="stroke-width: 0.4; stroke-opacity: 1; stroke: rgb(255, 6, 6); fill: none; opacity: 1;"/>
    <path class="link_h_layer_1_h_layer_2" marker-end="url(#arrow)" d="M920,644.5C1048,644.5 1048,482.5 1176,482.5" style="stroke-width: 0.4; stroke-opacity: 1; stroke: rgb(255, 93, 93); fill: none; opacity: 1;"/>
    <path class="link_h_layer_1_h_layer_2" marker-end="url(#arrow)" d="M920,644.5C1048,644.5 1048,536.5 1176,536.5" style="stroke-width: 0.4; stroke-opacity: 1; stroke: rgb(141, 141, 255); fill: none; opacity: 1;"/>
    <path class="link_h_layer_1_h_layer_2" marker-end="url(#arrow)" d="M920,644.5C1048,644.5 1048,590.5 1176,590.5" style="stroke-width: 0.4; stroke-opacity: 1; stroke: rgb(255, 243, 243); fill: none; opacity: 1;"/>
    <path class="link_h_layer_1_h_layer_2" marker-end="url(#arrow)" d="M920,644.5C1048,644.5 1048,644.5 1176,644.5" style="stroke-width: 0.4; stroke-opacity: 1; stroke: rgb(255, 149, 149); fill: none; opacity: 1;"/>
    <path class="link_h_layer_1_h_layer_2" marker-end="url(#arrow)" d="M920,644.5C1048,644.5 1048,698.5 1176,698.5" style="stroke-width: 0.4; stroke-opacity: 1; stroke: rgb(57, 57, 255); fill: none; opacity: 1;"/>
    <path class="link_h_layer_1_h_layer_2" marker-end="url(#arrow)" d="M920,698.5C1048,698.5 1048,212.5 1176,212.5" style="stroke-width: 0.4; stroke-opacity: 1; stroke: rgb(255, 33, 33); fill: none; opacity: 1;"/>
    <path class="link_h_layer_1_h_layer_2" marker-end="url(#arrow)" d="M920,698.5C1048,698.5 1048,266.5 1176,266.5" style="stroke-width: 0.4; stroke-opacity: 1; stroke: rgb(31, 31, 255); fill: none; opacity: 1;"/>
    <path class="link_h_layer_1_h_layer_2" marker-end="url(#arrow)" d="M920,698.5C1048,698.5 1048,320.5 1176,320.5" style="stroke-width: 0.4; stroke-opacity: 1; stroke: rgb(173, 173, 255); fill: none; opacity: 1;"/>
    <path class="link_h_layer_1_h_layer_2" marker-end="url(#arrow)" d="M920,698.5C1048,698.5 1048,374.5 1176,374.5" style="stroke-width: 0.4; stroke-opacity: 1; stroke: rgb(255, 49, 49); fill: none; opacity: 1;"/>
    <path class="link_h_layer_1_h_layer_2" marker-end="url(#arrow)" d="M920,698.5C1048,698.5 1048,428.5 1176,428.5" style="stroke-width: 0.4; stroke-opacity: 1; stroke: rgb(150, 150, 255); fill: none; opacity: 1;"/>
    <path class="link_h_layer_1_h_layer_2" marker-end="url(#arrow)" d="M920,698.5C1048,698.5 1048,482.5 1176,482.5" style="stroke-width: 0.4; stroke-opacity: 1; stroke: rgb(255, 117, 117); fill: none; opacity: 1;"/>
    <path class="link_h_layer_1_h_layer_2" marker-end="url(#arrow)" d="M920,698.5C1048,698.5 1048,536.5 1176,536.5" style="stroke-width: 0.4; stroke-opacity: 1; stroke: rgb(255, 27, 27); fill: none; opacity: 1;"/>
    <path class="link_h_layer_1_h_layer_2" marker-end="url(#arrow)" d="M920,698.5C1048,698.5 1048,590.5 1176,590.5" style="stroke-width: 0.4; stroke-opacity: 1; stroke: rgb(255, 227, 227); fill: none; opacity: 1;"/>
    <path class="link_h_layer_1_h_layer_2" marker-end="url(#arrow)" d="M920,698.5C1048,698.5 1048,644.5 1176,644.5" style="stroke-width: 0.4; stroke-opacity: 1; stroke: rgb(255, 163, 163); fill: none; opacity: 1;"/>
    <path class="link_h_layer_1_h_layer_2" marker-end="url(#arrow)" d="M920,698.5C1048,698.5 1048,698.5 1176,698.5" style="stroke-width: 0.4; stroke-opacity: 1; stroke: rgb(197, 197, 255); fill: none; opacity: 1;"/>
    <path class="link_ouput_1_h_layer_2" marker-end="url(#arrow)" d="M1176,212.5C1304,212.5 1304,455.5 1432,455.5" style="stroke-width: 0.4; stroke-opacity: 1; stroke: rgb(255, 0, 0); fill: none; opacity: 1;"/>
    <path class="link_ouput_1_h_layer_2" marker-end="url(#arrow)" d="M1176,266.5C1304,266.5 1304,455.5 1432,455.5" style="stroke-width: 0.4; stroke-opacity: 1; stroke: rgb(255, 102, 102); fill: none; opacity: 1;"/>
    <path class="link_ouput_1_h_layer_2" marker-end="url(#arrow)" d="M1176,320.5C1304,320.5 1304,455.5 1432,455.5" style="stroke-width: 0.4; stroke-opacity: 1; stroke: rgb(255, 63, 63); fill: none; opacity: 1;"/>
    <path class="link_ouput_1_h_layer_2" marker-end="url(#arrow)" d="M1176,374.5C1304,374.5 1304,455.5 1432,455.5" style="stroke-width: 0.4; stroke-opacity: 1; stroke: rgb(5, 5, 255); fill: none; opacity: 1;"/>
    <path class="link_ouput_1_h_layer_2" marker-end="url(#arrow)" d="M1176,428.5C1304,428.5 1304,455.5 1432,455.5" style="stroke-width: 0.4; stroke-opacity: 1; stroke: rgb(233, 233, 255); fill: none; opacity: 1;"/>
    <path class="link_ouput_1_h_layer_2" marker-end="url(#arrow)" d="M1176,482.5C1304,482.5 1304,455.5 1432,455.5" style="stroke-width: 0.4; stroke-opacity: 1; stroke: rgb(255, 143, 143); fill: none; opacity: 1;"/>
    <path class="link_ouput_1_h_layer_2" marker-end="url(#arrow)" d="M1176,536.5C1304,536.5 1304,455.5 1432,455.5" style="stroke-width: 0.4; stroke-opacity: 1; stroke: rgb(255, 147, 147); fill: none; opacity: 1;"/>
    <path class="link_ouput_1_h_layer_2" marker-end="url(#arrow)" d="M1176,590.5C1304,590.5 1304,455.5 1432,455.5" style="stroke-width: 0.4; stroke-opacity: 1; stroke: rgb(208, 208, 255); fill: none; opacity: 1;"/>
    <path class="link_ouput_1_h_layer_2" marker-end="url(#arrow)" d="M1176,644.5C1304,644.5 1304,455.5 1432,455.5" style="stroke-width: 0.4; stroke-opacity: 1; stroke: rgb(47, 47, 255); fill: none; opacity: 1;"/>
    <path class="link_ouput_1_h_layer_2" marker-end="url(#arrow)" d="M1176,698.5C1304,698.5 1304,455.5 1432,455.5" style="stroke-width: 0.4; stroke-opacity: 1; stroke: rgb(255, 150, 150); fill: none; opacity: 1;"/>
    <circle r="17" class="input_layer" id="0_0" cx="664" cy="374.5" style="fill: rgb(255, 255, 255); stroke: rgb(51, 51, 51); opacity: 1;"/>
    <circle r="17" class="input_layer" id="0_1" cx="664" cy="428.5" style="fill: rgb(255, 255, 255); stroke: rgb(51, 51, 51); opacity: 1;"/>
    <circle r="17" class="input_layer" id="0_2" cx="664" cy="482.5" style="fill: rgb(255, 255, 255); stroke: rgb(51, 51, 51); opacity: 1;"/>
    <circle r="17" class="input_layer" id="0_3" cx="664" cy="536.5" style="fill: rgb(255, 255, 255); stroke: rgb(51, 51, 51); opacity: 1;"/>
    <circle r="17" class="h_layer_1" id="1_0" cx="920" cy="212.5" style="fill: rgb(255, 255, 255); stroke: rgb(51, 51, 51); opacity: 1;"/>
    <circle r="17" class="h_layer_1" id="1_1" cx="920" cy="266.5" style="fill: rgb(255, 255, 255); stroke: rgb(51, 51, 51); opacity: 1;"/>
    <circle r="17" class="h_layer_1" id="1_2" cx="920" cy="320.5" style="fill: rgb(255, 255, 255); stroke: rgb(51, 51, 51); opacity: 1;"/>
    <circle r="17" class="h_layer_1" id="1_3" cx="920" cy="374.5" style="fill: rgb(255, 255, 255); stroke: rgb(51, 51, 51); opacity: 1;"/>
    <circle r="17" class="h_layer_1" id="1_4" cx="920" cy="428.5" style="fill: rgb(255, 255, 255); stroke: rgb(51, 51, 51); opacity: 1;"/>
    <circle r="17" class="h_layer_1" id="1_5" cx="920" cy="482.5" style="fill: rgb(255, 255, 255); stroke: rgb(51, 51, 51); opacity: 1;"/>
    <circle r="17" class="h_layer_1" id="1_6" cx="920" cy="536.5" style="fill: rgb(255, 255, 255); stroke: rgb(51, 51, 51); opacity: 1;"/>
    <circle r="17" class="h_layer_1" id="1_7" cx="920" cy="590.5" style="fill: rgb(255, 255, 255); stroke: rgb(51, 51, 51); opacity: 1;"/>
    <circle r="17" class="h_layer_1" id="1_8" cx="920" cy="644.5" style="fill: rgb(255, 255, 255); stroke: rgb(51, 51, 51); opacity: 1;"/>
    <circle r="17" class="h_layer_1" id="1_9" cx="920" cy="698.5" style="fill: rgb(255, 255, 255); stroke: rgb(51, 51, 51); opacity: 1;"/>
    <circle r="17" class="h_layer_2" id="2_0" cx="1176" cy="212.5" style="fill: rgb(255, 255, 255); stroke: rgb(51, 51, 51); opacity: 1;"/>
    <circle r="17" class="h_layer_2" id="2_1" cx="1176" cy="266.5" style="fill: rgb(255, 255, 255); stroke: rgb(51, 51, 51); opacity: 1;"/>
    <circle r="17" class="h_layer_2" id="2_2" cx="1176" cy="320.5" style="fill: rgb(255, 255, 255); stroke: rgb(51, 51, 51); opacity: 1;"/>
    <circle r="17" class="h_layer_2" id="2_3" cx="1176" cy="374.5" style="fill: rgb(255, 255, 255); stroke: rgb(51, 51, 51); opacity: 1;"/>
    <circle r="17" class="h_layer_2" id="2_4" cx="1176" cy="428.5" style="fill: rgb(255, 255, 255); stroke: rgb(51, 51, 51); opacity: 1;"/>
    <circle r="17" class="h_layer_2" id="2_5" cx="1176" cy="482.5" style="fill: rgb(255, 255, 255); stroke: rgb(51, 51, 51); opacity: 1;"/>
    <circle r="17" class="h_layer_2" id="2_6" cx="1176" cy="536.5" style="fill: rgb(255, 255, 255); stroke: rgb(51, 51, 51); opacity: 1;"/>
    <circle r="17" class="h_layer_2" id="2_7" cx="1176" cy="590.5" style="fill: rgb(255, 255, 255); stroke: rgb(51, 51, 51); opacity: 1;"/>
    <circle r="17" class="h_layer_2" id="2_8" cx="1176" cy="644.5" style="fill: rgb(255, 255, 255); stroke: rgb(51, 51, 51); opacity: 1;"/>
    <circle r="17" class="h_layer_2" id="2_9" cx="1176" cy="698.5" style="fill: rgb(255, 255, 255); stroke: rgb(51, 51, 51); opacity: 1;"/>
    <circle r="17" class="output_1" id="3_0" cx="1432" cy="455.5" style="fill: rgb(255, 255, 255); stroke: rgb(51, 51, 51); opacity: 1;"/>
    <text class="input" x="635" y="374.5" style="font-size: 12px; text-anchor: end;">Température extérieure (°C)</text>
    <line x1="630" y1="374.5" x2="648" y2="374.5" style="stroke: rgb(51, 51, 51); stroke-width: 1;"/>
    <text class="input" x="635" y="428.5" style="font-size: 12px; text-anchor: end;">Mois (Month)</text>
    <line x1="630" y1="428.5" x2="648" y2="428.5" style="stroke: rgb(51, 51, 51); stroke-width: 1;"/>
    <text class="input" x="635" y="482.5" style="font-size: 12px; text-anchor: end;">Jour (Day)</text>
    <line x1="630" y1="482.5" x2="648" y2="482.5" style="stroke: rgb(51, 51, 51); stroke-width: 1;"/>
    <text class="input" x="635" y="536.5" style="font-size: 12px; text-anchor: end;">Jour de la semaine (Weekday)</text>
    <line x1="630" y1="536.5" x2="648" y2="536.5" style="stroke: rgb(51, 51, 51); stroke-width: 1;"/>
    <text class="text-layer-input" dy=".35em" x="629" y="752.5" style="font-size: 12px;">Input Layer ∈ ℝ⁴</text>
    <text class="text-layer-h_layer1" dy=".35em" x="885" y="752.5" style="font-size: 12px;">Hidden Layer ∈ ℝ¹⁰</text>
    <text class="text-layer-h_layer2" dy=".35em" x="1141" y="752.5" style="font-size: 12px;">Hidden Layer ∈ ℝ¹⁰</text>
    <text class="text-layer-output" dy=".35em" x="1397" y="752.5" style="font-size: 12px;">Output Layer ∈ ℝ¹</text>
  </g>
  <defs>
    <marker id="arrow" viewBox="0 -5 10 10" markerWidth="7" markerHeight="7" orient="auto" refX="59.599999999999994">
      <path d="M0,-5L10,0L0,5" style="stroke: rgb(80, 80, 80); fill: none;"/>
    </marker>
  </defs>
</svg>